<?xml version="1.0" encoding="UTF-8" standalone="no"?>
<!DOCTYPE svg PUBLIC "-//W3C//DTD SVG 1.1//EN" "http://www.w3.org/Graphics/SVG/1.1/DTD/svg11.dtd">
<!-- Generated by Microsoft Visio, SVG Export LogoTodo.svg Page-1 -->
<svg xmlns="http://www.w3.org/2000/svg" xmlns:xlink="http://www.w3.org/1999/xlink" xmlns:ev="http://www.w3.org/2001/xml-events"
		xmlns:v="http://schemas.microsoft.com/visio/2003/SVGExtensions/" width="11.1113in" height="3.58125in"
		viewBox="0 0 800.017 257.85" xml:space="preserve" color-interpolation-filters="sRGB" class="st7">
	<v:documentProperties v:langID="1033" v:metric="true" v:viewMarkup="false"/>

	<style type="text/css">
	<![CDATA[
		.st1 {fill:#000000;stroke:none;stroke-linecap:butt;stroke-width:1.36607}
		.st2 {fill:#ffffff;stroke:#ffffff;stroke-width:0.25}
		.st3 {fill:#000000;stroke:none;stroke-linecap:butt;stroke-width:1.54688}
		.st4 {fill:none;stroke:none;stroke-width:0.25}
		.st5 {fill:#262626;font-family:Calibri;font-size:3.49999em;font-weight:bold}
		.st6 {font-size:1em;font-weight:normal}
		.st7 {fill:none;fill-rule:evenodd;font-size:12px;overflow:visible;stroke-linecap:square;stroke-miterlimit:3}
	]]>
	</style>

	<g v:mID="0" v:index="1" v:groupContext="foregroundPage">
		<title>Page-1</title>
		<v:pageProperties v:drawingScale="0.0393701" v:pageScale="0.0393701" v:drawingUnits="24" v:shadowOffsetX="9"
				v:shadowOffsetY="-9"/>
		<g id="group6-1" transform="translate(35.0794,256.484) rotate(-90)" v:mID="6" v:groupContext="group">
			<title>Sheet.6</title>
			<g id="shape7-2" v:mID="7" v:groupContext="shape">
				<title>Sheet.7</title>
				<path d="M70.61 153.07 C66.85 153.07 63.78 149.99 63.78 146.24 L63.78 132.57 C63.78 128.81 66.85 125.74 70.61 125.74
							 L184.51 125.74 C188.26 125.74 191.34 128.81 191.34 132.57 L191.34 146.24 C191.34 149.99 188.26 153.07
							 184.51 153.07 L70.61 153.07 ZM255.12 30.07 L255.12 230.52 C255.12 245.61 242.87 257.85 227.78 257.85
							 L27.33 257.85 C12.24 257.85 0 245.61 0 230.52 L0 30.07 C0 14.98 12.24 2.73 27.33 2.73 L54.67 2.73 L54.67
							 -26.88 C54.67 -30.64 57.74 -33.71 61.5 -33.71 L84.28 -33.71 C88.04 -33.71 91.11 -30.64 91.11 -26.88
							 L91.11 2.73 L164 2.73 L164 -26.88 C164 -30.64 167.08 -33.71 170.84 -33.71 L193.62 -33.71 C197.37 -33.71
							 200.45 -30.64 200.45 -26.88 L200.45 2.73 L227.78 2.73 C242.87 2.73 255.12 14.98 255.12 30.07 ZM227.78
							 227.1 L227.78 57.4 L27.33 57.4 L27.33 227.1 C27.33 228.98 28.87 230.52 30.75 230.52 L224.37 230.52 C226.25
							 230.52 227.78 228.98 227.78 227.1 Z" class="st1"/>
			</g>
		</g>
		<g id="shape11-4" v:mID="11" v:groupContext="shape" transform="translate(112.626,-57.2906)">
			<title>Rectangle</title>
			<v:userDefs>
				<v:ud v:nameU="visVersion" v:val="VT0(15):26"/>
			</v:userDefs>
			<rect x="0" y="114.581" width="104.196" height="143.269" class="st2"/>
		</g>
		<g id="group8-6" transform="translate(130.472,-38.4561)" v:mID="8" v:groupContext="group">
			<title>Sheet.8</title>
			<g id="shape9-7" v:mID="9" v:groupContext="shape">
				<title>Sheet.9</title>
				<path d="M136.23 255.89 A2.86682 2.86682 0 0 1 132.29 254.93 L87.38 180.96 A11.4397 11.4397 -180 0 0 92.02 177.56
							 L137.19 251.95 A2.86682 2.86682 0 0 1 136.23 255.89 ZM51.17 185.48 L39.51 217.54 L52.46 249.18 C54.86
							 255.04 61.55 257.85 67.41 255.45 C73.27 253.05 76.08 246.36 73.68 240.5 L51.17 185.48 ZM34.4 104.37
							 C43.11 104.37 50.17 97.31 50.17 88.6 C50.17 79.89 43.11 72.83 34.4 72.83 C25.69 72.83 18.63 79.89 18.63
							 88.6 C18.63 97.31 25.69 104.37 34.4 104.37 ZM89.89 164.98 L46.89 110.51 C45.19 108.36 42.68 107.24 40.14
							 107.24 L40.14 107.23 L28.67 107.23 L28.67 107.24 C26.11 107.24 23.57 108.38 21.88 110.56 L0 138.69 L0
							 172.98 C0 177.8 3.95 181.86 8.77 181.77 C13.44 181.68 17.2 177.87 17.2 173.17 L17.2 144.59 L22.93 137.22
							 L22.93 187.63 L3.56 240.92 C1.39 246.87 4.46 253.45 10.42 255.62 C16.36 257.78 22.95 254.71 25.11 248.76
							 L48.74 183.79 L48.74 145.38 L37.48 131.11 A1.43354 1.43354 0 0 1 39.73 129.33 L76.39 175.63 C79.66 179.78
							 85.12 179.7 88.47 177.05 C92.2 174.11 92.82 168.69 89.89 164.98 Z" class="st3"/>
			</g>
		</g>
		<g id="shape12-9" v:mID="12" v:groupContext="shape" transform="translate(287.384,-78.9566)">
			<title>Sheet.12</title>
			<desc>CATÁLOGO DE SOFTWARE PARA DISCAPACIDAD VISUAL</desc>
			<v:textBlock v:margins="rect(4,4,4,4)" v:tabSpace="42.5197"/>
			<v:textRect cx="256.192" cy="205.842" width="512.39" height="104.017"/>
			<rect x="0" y="153.834" width="512.383" height="104.017" class="st4"/>
			<text x="27.6" y="193.24" class="st5" v:langID="3082"><v:paragraph v:horizAlign="1"/><v:tabList/>CATÁLOGO DE SOFTWARE<v:newlineChar/><tspan
						x="10.15" dy="1.2em" class="st6">PARA DISCAPACIDAD VISUAL</tspan></text>		</g>
	</g>
</svg>
